/* XPM */
static char * back_xpm[] = {
"16 16 47 1",
" 	g None",
".	g #424242",
"+	g #3E3E3E",
"@	g #323232",
"#	g #989898",
"$	g #020202",
"%	g #404040",
"&	g #ECECEC",
"*	g #000000",
"=	g #FCFCFC",
"-	g #A5A5A5",
";	g #393939",
">	g #444444",
",	g #B5B5B5",
"'	g #878787",
")	g #CCCCCC",
"!	g #E3E3E3",
"~	g #FBFBFB",
"{	g #B0B0B0",
"]	g #161616",
"^	g #3F3F3F",
"/	g #EAEAEA",
"(	g #727272",
"_	g #959595",
":	g #171717",
"<	g #111111",
"[	g #484848",
"}	g #6E6E6E",
"|	g #A9A9A9",
"1	g #787878",
"2	g #8E8E8E",
"3	g #AAAAAA",
"4	g #9A9A9A",
"5	g #191919",
"6	g #464646",
"7	g #B2B2B2",
"8	g #757575",
"9	g #747474",
"0	g #797979",
"a	g #6D6D6D",
"b	g #646464",
"c	g #141414",
"d	g #494949",
"e	g #1F1F1F",
"f	g #202020",
"g	g #7D7D7D",
"h	g #0E0E0E",
"                ",
"        .       ",
"       +@       ",
"      .#$       ",
"     %#&*       ",
"    +#=-;.....  ",
"   >#=,')!~!{]  ",
"  ^#/-'(((((_:  ",
"  <[}|1(23342:  ",
"   56}71890ab*  ",
"    c[}|deff**  ",
"     c>g*       ",
"      c.*       ",
"       h*       ",
"        *       ",
"                "};
