/* XPM */
static char * forward_xpm[] = {
"16 16 47 1",
" 	g None",
".	g #000000",
"+	g #0E0E0E",
"@	g #424242",
"#	g #141414",
"$	g #7D7D7D",
"%	g #444444",
"&	g #202020",
"*	g #1F1F1F",
"=	g #494949",
"-	g #A9A9A9",
";	g #6E6E6E",
">	g #484848",
",	g #646464",
"'	g #6D6D6D",
")	g #797979",
"!	g #747474",
"~	g #757575",
"{	g #787878",
"]	g #B2B2B2",
"^	g #464646",
"/	g #191919",
"(	g #171717",
"_	g #8E8E8E",
":	g #9A9A9A",
"<	g #AAAAAA",
"[	g #727272",
"}	g #111111",
"|	g #959595",
"1	g #878787",
"2	g #A5A5A5",
"3	g #EAEAEA",
"4	g #989898",
"5	g #3F3F3F",
"6	g #161616",
"7	g #B0B0B0",
"8	g #E3E3E3",
"9	g #FBFBFB",
"0	g #CCCCCC",
"a	g #B5B5B5",
"b	g #FCFCFC",
"c	g #393939",
"d	g #3E3E3E",
"e	g #ECECEC",
"f	g #404040",
"g	g #020202",
"h	g #323232",
"                ",
"       .        ",
"       .+       ",
"       .@#      ",
"       .$%#     ",
"  ..&&*=-;>#    ",
"  .,')!~{];^/   ",
"  (_:<<_[{-;>}  ",
"  (|[[[[[12345  ",
"  6789801ab4%   ",
"  @@@@@c2b4d    ",
"       .e4f     ",
"       g4@      ",
"       hd       ",
"       @        ",
"                "};
